{"title":"The.Other.Woman.2014.CAM.XViD-BL4CKP34RL","uid":10400962,"size":1503367112,"categoryP":"video","categoryS":"movies","magnet":"?xt=urn:btih:8623ae35cb775eb3ddb95d135fc4e3290701bb53&amp;dn=The.Other.Woman.2014.CAM.XViD-BL4CKP34RL&amp;tr=udp%3A%2F%2Ftracker.openbittorrent.com%3A80&amp;tr=udp%3A%2F%2Fopen.demonii.com%3A1337&amp;tr=udp%3A%2F%2Ftracker.coppersurfer.tk%3A6969&amp;tr=udp%3A%2F%2Fexodus.desync.com%3A6969","seeders":5,"leechers":2,"uploader":"Xetron","files":4,"time":1403366037,"description":"\n[IMG]http://i.imgur.com/2ypCvkB.png[/IMG]\n\n\n\n\n                    A Fine Release Brought to you from - BL4CKP34RL                  \n                                                 \n\n******************************************************************************************\n                     The.Other.Woman.2014.CAM.XViD-BL4CKP34RL                  \n******************************************************************************************\n\nRipper ...........: J4CKSP4RR0W          IMDB Rating.......: 6.6/10                             \nVideo Codec.......: XViD                 Release Date......: 20 June 2014\nAudio Codec.......: mp3                  Theatre Date......: 25 April 2014  \nAudio Bitrate.....: 128 kbps             Runtime...........: 1hr 44min 32sec\nSubtitles.........: n/a                  Language..........: ENGLISH\nResolution........: 720x336              IMDb URL..........: http://www.imdb.com/title/tt2203939/\n\n\n[color=green]DETAILS:[/color]\n\n\nFormat                                   : AVI\nFormat/Info                              : Audio Video Interleave\nFile size                                : 1.39 GiB\nDuration                                 : 1h 44mn\nOverall bit rate                         : 1 897 Kbps\nWriting library                          : VirtualDub build 32839/release\n\nVideo\nID                                       : 0\nFormat                                   : MPEG-4 Visual\nFormat profile                           : Advanced Simple@L5\nFormat settings, BVOP                    : 2\nFormat settings, QPel                    : Yes\nFormat settings, GMC                     : No warppoints\nFormat settings, Matrix                  : Default (H.263)\nMuxing mode                              : Packed bitstream\nCodec ID                                 : XVID\nCodec ID/Hint                            : XviD\nDuration                                 : 1h 44mn\nBit rate                                 : 1 759 Kbps\nWidth                                    : 720 pixels\nHeight                                   : 336 pixels\nDisplay aspect ratio                     : 2.143\nFrame rate                               : 23.976 fps\nColor space                              : YUV\nChroma subsampling                       : 4:2:0\nBit depth                                : 8 bits\nCompression mode                         : Lossy\nBits/(Pixel*Frame)                       : 0.303\nStream size                              : 1.28 GiB (93%)\nWriting library                          : XviD 65\n\nAudio\nID                                       : 1\nFormat                                   : MPEG Audio\nFormat version                           : Version 1\nFormat profile                           : Layer 3\nMode                                     : Joint stereo\nMode extension                           : MS Stereo\nCodec ID                                 : 55\nCodec ID/Hint                            : MP3\nDuration                                 : 1h 44mn\nBit rate mode                            : Constant\nBit rate                                 : 128 Kbps\nChannel(s)                               : 2 channels\nSampling rate                            : 48.0 KHz\nCompression mode                         : Lossy\nDelay relative to video                  : 14ms\nStream size                              : 95.7 MiB (7%)\nAlignment                                : Split accross interleaves\nInterleave, duration                     : 42 ms (1.00 video frame)\nWriting library                          : LAME3.99\u0004\n\n\n\n\n\n\n[color=red]SOURCES:[/color]\n\n\n\nVIDEO: ............. 720p CAM FILES ...thanks  \nAUDIO: ............. 720p CAM FILES ...thanks \n\n[color=yellow]NOTES:[/color]\n\n\nWEll we found sum vobs and went to work on them then got passed a 720 CAM FILE for it so binned\nthe vobs and went to work on the 720 file.. gave it crop, resize, denoise few other lil things\nthen sharpened it back up a touch then cleaned the CAM audio up a lil bit and remuxed t back to our \nencode.. enjoy as it is a funny movie..\n\n\n[color=green]SCREENS:[/color]\n\n[IMG]http://i.imgur.com/RPt7tep.png[/IMG]\n[IMG]http://i.imgur.com/BGL8Jn7.png[/IMG]\n[IMG]http://i.imgur.com/PupNc1r.png[/IMG]\n[IMG]http://i.imgur.com/tvFzrxp.png[/IMG]\n[IMG]http://i.imgur.com/IhBvVqC.png[/IMG]\n[IMG]http://i.imgur.com/p31XiLu.png[/IMG]\n\n\n\n[color=yellow]GREETS:[/color]\n\n\nTo those that deserve it.. You know who you are \n\n\n[COLOR=RED]Looking for not a damn thing[/COLOR]\n\n","torrent":{"xt":"urn:btih:8623ae35cb775eb3ddb95d135fc4e3290701bb53","amp;dn":"The.Other.Woman.2014.CAM.XViD-BL4CKP34RL","amp;tr":["udp%3A%2F%2Ftracker.openbittorrent.com%3A80","udp%3A%2F%2Fopen.demonii.com%3A1337","udp%3A%2F%2Ftracker.coppersurfer.tk%3A6969","udp%3A%2F%2Fexodus.desync.com%3A6969"],"infoHash":"8623ae35cb775eb3ddb95d135fc4e3290701bb53","infoHashBuffer":{"type":"Buffer","data":[134,35,174,53,203,119,94,179,221,185,93,19,95,196,227,41,7,1,187,83]},"announce":[],"urlList":[]}}